<svg xmlns="http://www.w3.org/2000/svg" id="Camada_1" viewBox="0 0 150 90"><defs><style>      .st0 {        fill: #fff;      }    </style></defs><g><path class="st0" d="M24.85,79.28h4.47c1.14,0,2.04.31,2.6.88.44.44.67,1,.67,1.65v.03c0,1.2-.68,1.84-1.42,2.22,1.17.4,1.98,1.07,1.98,2.42v.03c0,1.78-1.47,2.73-3.69,2.73h-4.61v-9.96ZM30.85,82.1c0-.78-.63-1.27-1.75-1.27h-2.52v2.65h2.39c1.12,0,1.88-.44,1.88-1.35v-.03ZM29.35,84.96h-2.78v2.73h2.9c1.18,0,1.92-.47,1.92-1.37v-.03c0-.84-.67-1.34-2.05-1.34Z"></path><path class="st0" d="M39.05,85.32l-3.96-6.03h2.08l2.78,4.4,2.82-4.4h2.01l-3.96,5.99v3.97h-1.76v-3.93Z"></path><path class="st0" d="M52.97,84.29v-.03c0-2.83,2.12-5.15,5.12-5.15,1.85,0,2.96.64,3.91,1.55l-1.12,1.29c-.81-.74-1.65-1.22-2.8-1.22-1.88,0-3.27,1.55-3.27,3.5v.03c0,1.95,1.38,3.53,3.29,3.53,1.22,0,2.01-.48,2.86-1.28l1.12,1.14c-1.04,1.08-2.18,1.76-4.04,1.76-2.92,0-5.07-2.26-5.07-5.12Z"></path><path class="st0" d="M65.34,79.28h1.75v8.37h5.24v1.59h-6.99v-9.96Z"></path><path class="st0" d="M79.08,79.21h1.62l4.38,10.03h-1.85l-1.01-2.4h-4.71l-1.02,2.4h-1.79l4.38-10.03ZM81.58,85.29l-1.72-3.98-1.71,3.98h3.43Z"></path><path class="st0" d="M87.38,87.79l1.05-1.25c.95.83,1.92,1.29,3.14,1.29,1.08,0,1.76-.51,1.76-1.25v-.03c0-.71-.4-1.1-2.25-1.52-2.12-.51-3.32-1.14-3.32-2.97v-.03c0-1.71,1.42-2.89,3.4-2.89,1.45,0,2.6.44,3.61,1.25l-.94,1.32c-.9-.67-1.79-1.02-2.7-1.02-1.02,0-1.62.53-1.62,1.18v.03c0,.77.46,1.11,2.38,1.56,2.11.51,3.19,1.27,3.19,2.92v.03c0,1.86-1.47,2.97-3.56,2.97-1.52,0-2.96-.53-4.16-1.59Z"></path><path class="st0" d="M97.76,87.79l1.05-1.25c.95.83,1.92,1.29,3.14,1.29,1.08,0,1.76-.51,1.76-1.25v-.03c0-.71-.4-1.1-2.25-1.52-2.12-.51-3.32-1.14-3.32-2.97v-.03c0-1.71,1.42-2.89,3.4-2.89,1.45,0,2.6.44,3.61,1.25l-.94,1.32c-.9-.67-1.79-1.02-2.7-1.02-1.02,0-1.62.53-1.62,1.18v.03c0,.77.46,1.11,2.38,1.56,2.11.51,3.19,1.27,3.19,2.92v.03c0,1.86-1.47,2.97-3.56,2.97-1.52,0-2.96-.53-4.16-1.59Z"></path><path class="st0" d="M111.46,85.32l-3.96-6.03h2.08l2.78,4.4,2.82-4.4h2.01l-3.96,5.99v3.97h-1.76v-3.93Z"></path><path class="st0" d="M118.97,87.79l1.05-1.25c.95.83,1.92,1.29,3.14,1.29,1.08,0,1.76-.51,1.76-1.25v-.03c0-.71-.4-1.1-2.25-1.52-2.12-.51-3.32-1.14-3.32-2.97v-.03c0-1.71,1.42-2.89,3.4-2.89,1.45,0,2.6.44,3.61,1.25l-.94,1.32c-.9-.67-1.79-1.02-2.7-1.02-1.02,0-1.62.53-1.62,1.18v.03c0,.77.46,1.11,2.38,1.56,2.11.51,3.19,1.27,3.19,2.92v.03c0,1.86-1.47,2.97-3.56,2.97-1.52,0-2.96-.53-4.16-1.59Z"></path></g><path class="st0" d="M35.3,44.73c0-.89-.39-1.59-1.18-2.1-.79-.51-2.04-.89-3.75-1.15-4.31-.64-6.47-2.66-6.47-6.08,0-1.25.32-2.34.97-3.26.65-.92,1.54-1.63,2.66-2.12,1.12-.49,2.37-.73,3.75-.73,1.24,0,2.41.19,3.5.57,1.09.38,2,.87,2.73,1.49.57.46.86.98.86,1.58,0,.46-.17.86-.5,1.21-.34.35-.73.52-1.18.52-.3,0-.56-.09-.8-.27-.51-.42-1.23-.8-2.14-1.15-.92-.35-1.74-.52-2.47-.52-1.24,0-2.2.23-2.88.7-.68.47-1.02,1.08-1.02,1.83,0,.85.35,1.5,1.05,1.94.7.44,1.8.79,3.29,1.07,1.69.3,3.05.68,4.06,1.15,1.01.47,1.78,1.1,2.29,1.91.51.8.77,1.87.77,3.2,0,1.25-.35,2.35-1.05,3.29-.7.94-1.63,1.67-2.79,2.18-1.16.51-2.41.76-3.75.76-1.42,0-2.68-.18-3.78-.54-1.1-.36-2.14-.96-3.1-1.82-.53-.48-.8-1-.8-1.58,0-.46.17-.86.5-1.21.33-.35.74-.52,1.21-.52.37,0,.71.12,1,.36.79.66,1.56,1.13,2.3,1.43.75.3,1.63.45,2.66.45,1.1,0,2.05-.25,2.85-.74.8-.5,1.2-1.11,1.2-1.85ZM88.67,43.72h-9.75c.24,1.17.78,2.09,1.62,2.76.85.67,1.8,1,2.86,1,.81,0,1.44-.07,1.89-.22.45-.15.81-.31,1.08-.48.27-.17.45-.28.55-.34.35-.18.69-.27,1-.27.41,0,.77.15,1.06.45.3.3.44.65.44,1.04,0,.54-.28,1.02-.83,1.46-.55.46-1.29.84-2.22,1.16-.93.32-1.86.48-2.81.48-1.65,0-3.1-.35-4.33-1.04-1.23-.7-2.18-1.65-2.85-2.88-.67-1.22-1-2.6-1-4.13,0-1.71.35-3.21,1.06-4.5.71-1.29,1.64-2.28,2.81-2.96,1.16-.69,2.4-1.03,3.72-1.03s2.53.36,3.68,1.07c1.15.72,2.07,1.68,2.76,2.89.69,1.21,1.03,2.52,1.03,3.93-.02.48-.21.86-.56,1.16-.35.3-.77.45-1.24.45ZM86.69,40.53c-.08-.83-.48-1.55-1.21-2.15-.73-.6-1.56-.89-2.48-.89-2.28,0-3.63,1.08-4.05,3.25h7.74v-.21ZM40.23,35.03c-.34.35-.5.78-.5,1.3v8.7c0,1.11.22,2.1.65,2.96.43.86,1.04,1.54,1.83,2.03.79.49,1.69.73,2.72.73,2.17,0,3.76-.65,4.78-1.94v.3c0,1.47-.33,2.51-.99,3.11-.66.61-1.69.91-3.09.91-.41,0-.81-.04-1.2-.13-.38-.09-.75-.2-1.09-.34-.34-.14-.59-.24-.72-.3-.18-.06-.36-.09-.56-.09-.33,0-.65.11-.93.34-.29.23-.49.56-.61,1-.06.18-.09.34-.09.48,0,.73.48,1.31,1.45,1.73.43.18,1,.32,1.7.43.7.11,1.38.16,2.05.16,2.3,0,4.14-.59,5.52-1.77,1.38-1.18,2.07-3.06,2.07-5.65v-12.66c0-.52-.17-.95-.5-1.3-.33-.35-.76-.52-1.27-.52s-.94.17-1.27.52c-.34.35-.5.78-.5,1.3v7.63c0,1.13-.28,2-.84,2.61-.56.61-1.35.91-2.38.91s-1.84-.27-2.38-.82c-.54-.55-.81-1.45-.81-2.7v-7.63c0-.52-.17-.95-.5-1.3-.33-.35-.76-.52-1.27-.52s-.94.17-1.27.52ZM111.56,49.93c.33.35.76.52,1.27.52s.94-.17,1.27-.52c.33-.35.5-.78.5-1.3v-7.63c0-2.13-.37-3.79-1.12-4.99-.75-1.2-2.1-1.8-4.05-1.8-1.16,0-2.2.34-3.12,1.01-.92.68-1.6,1.43-2.05,2.26-.69-2.19-2.27-3.28-4.76-3.28-1,0-1.92.25-2.73.76-.82.51-1.49,1.12-2.02,1.83v-.48c0-.52-.17-.95-.5-1.3-.33-.35-.76-.52-1.27-.52s-.94.17-1.27.52c-.34.35-.5.78-.5,1.3v12.31c0,.52.17.95.5,1.3.33.35.76.52,1.27.52s.93-.17,1.27-.52c.33-.35.5-.78.5-1.3v-7.63c0-1.01.31-1.85.93-2.52.62-.67,1.48-1,2.58-1s1.81.31,2.23.94c.42.63.63,1.49.63,2.58v7.63c0,.52.17.95.5,1.3.33.35.76.52,1.27.52s.94-.17,1.27-.52c.33-.35.5-.78.5-1.3v-7.63c0-1.01.31-1.85.93-2.52.62-.67,1.48-1,2.58-1s1.81.31,2.23.94c.42.63.64,1.49.64,2.58v7.63c0,.52.17.95.5,1.3ZM122.01,47.89c-.91,0-1.68-.15-2.32-.45-.64-.3-1.26-.75-1.85-1.37-.37-.38-.77-.57-1.18-.57-.3,0-.58.09-.86.27-.51.36-.77.79-.77,1.31,0,.36.09.66.27.89.71.97,1.62,1.68,2.75,2.12,1.12.44,2.33.66,3.63.66.94,0,1.87-.19,2.76-.57.9-.38,1.63-.93,2.2-1.65.57-.73.86-1.57.86-2.55,0-1.07-.25-1.94-.74-2.59-.49-.66-1.09-1.14-1.8-1.46-.71-.32-1.59-.63-2.66-.92-.77-.22-1.36-.4-1.79-.55-.42-.15-.77-.36-1.05-.63-.28-.27-.41-.62-.41-1.06,0-1.09.75-1.64,2.24-1.64.71,0,1.34.13,1.91.39.56.26,1.02.61,1.37,1.04.28.28.63.42,1.06.42.35,0,.67-.11.94-.33.37-.3.56-.68.56-1.13,0-.4-.13-.75-.38-1.07-.57-.73-1.36-1.29-2.36-1.67-1-.38-2.01-.57-3.01-.57s-1.92.19-2.79.58c-.88.39-1.59.93-2.13,1.64-.54.71-.81,1.53-.81,2.49,0,1.09.26,1.96.78,2.61.52.65,1.14,1.13,1.86,1.45.72.32,1.65.64,2.79.95,1.1.3,1.91.6,2.44.89.52.3.78.74.78,1.31,0,1.11-.77,1.7-2.3,1.76ZM150,43.81c-9.77,12.42-38.36,21.98-72.35,22.93C35.24,67.92.48,55.25,0,38.44c-.25-8.78,8.92-16.96,23.77-22.94V2.73c0-.61.2-1.12.61-1.53.41-.41.92-.61,1.53-.61h8.85c2.25,0,3.92.53,5.02,1.58,1.1,1.05,1.65,2.61,1.65,4.67,0,1.1-.27,2.07-.81,2.9-.49.76-1.2,1.36-2.12,1.81.4.16.8.36,1.19.58.88.5,1.6,1.21,2.18,2.11.57.9.86,2.05.86,3.46,0,1.55-.25,2.81-.76,3.79-.5.98-1.16,1.74-1.98,2.28-.82.54-1.7.91-2.63,1.11-.94.2-1.84.3-2.7.3h-8.74c-.61,0-1.12-.2-1.53-.61-.41-.41-.61-.92-.61-1.53v-7.39c-11.25,5.37-17.95,12.13-17.75,19.32.45,15.95,34.74,27.93,76.59,26.76,29.71-.83,55.24-8.07,67.39-17.9ZM38.17,17.69c0-1.05-.21-1.81-.63-2.28-.42-.47-.93-.76-1.51-.88-.59-.12-1.12-.18-1.62-.18h-6.08v6.78h6.32c1.08,0,1.93-.29,2.56-.86.63-.57.95-1.43.95-2.58ZM34.13,4.73h-5.79v5.48h5.9c.68,0,1.29-.22,1.83-.67.54-.44.81-1.09.81-1.93,0-1.01-.25-1.74-.75-2.19-.5-.46-1.16-.68-1.98-.68ZM73.75,38.09c.47,0,.87-.15,1.18-.46.31-.31.47-.69.47-1.15s-.16-.87-.47-1.19c-.32-.32-.71-.48-1.18-.48h-2.1v-1.91c0-.52-.17-.95-.5-1.3-.34-.35-.75-.52-1.24-.52s-.94.17-1.28.52c-.34.35-.52.78-.52,1.3v1.91h-1.36c-.47,0-.87.15-1.18.46-.32.31-.47.69-.47,1.15,0,.01,0,.02,0,.03,0,0,0,0,0,0-.57-.73-1.36-1.29-2.36-1.67-1-.38-2.01-.57-3.01-.57s-1.92.19-2.79.58c-.88.39-1.59.93-2.13,1.64-.54.71-.81,1.53-.81,2.49,0,1.09.26,1.96.78,2.61.52.65,1.14,1.13,1.86,1.45.72.32,1.65.64,2.79.95,1.1.3,1.91.6,2.44.89.52.3.78.74.78,1.31,0,1.11-.77,1.7-2.3,1.76-.91,0-1.68-.15-2.32-.45-.64-.3-1.26-.75-1.85-1.37-.37-.38-.77-.57-1.18-.57-.3,0-.58.09-.86.27-.51.36-.77.79-.77,1.31,0,.36.09.66.27.89.71.97,1.62,1.68,2.75,2.12,1.12.44,2.33.66,3.63.66.95,0,1.87-.19,2.76-.57.9-.38,1.63-.93,2.2-1.65.57-.73.86-1.57.86-2.55,0-1.07-.25-1.94-.74-2.59-.49-.66-1.09-1.14-1.8-1.46-.71-.32-1.59-.63-2.66-.92-.77-.22-1.36-.4-1.79-.55-.42-.15-.77-.36-1.05-.63-.28-.27-.41-.62-.41-1.06,0-1.09.75-1.64,2.24-1.64.71,0,1.34.13,1.91.39.56.26,1.02.61,1.37,1.04.28.28.63.42,1.06.42.35,0,.67-.11.95-.33.37-.3.56-.68.56-1.13,0,0,0,0,0,0,.03.03.06.07.09.1.31.32.71.48,1.18.48h1.36v8.22c0,1.71.42,2.83,1.26,3.35.84.53,1.87.79,3.09.79.73,0,1.38-.18,1.96-.55.58-.37.87-.82.87-1.36,0-.44-.11-.79-.34-1.06-.23-.27-.48-.4-.75-.4-.22,0-.44.05-.68.15-.28.08-.49.12-.65.12-.37,0-.67-.09-.89-.28-.22-.19-.32-.49-.32-.91v-8.08h2.1ZM44.19,20.88c-.78-1.43-1.18-3.04-1.18-4.85,0-2.11.43-3.9,1.28-5.39.85-1.49,1.97-2.63,3.35-3.42,1.38-.8,2.84-1.19,4.39-1.19,1.19,0,2.32.25,3.39.74,1.07.49,2.01,1.16,2.83,2.02.82.85,1.47,1.84,1.95,2.97.48,1.12.72,2.32.72,3.58-.02.56-.25,1.02-.67,1.37s-.91.53-1.47.53h-11.59c.13.64.34,1.23.65,1.74.53.88,1.21,1.55,2.04,2,.83.46,1.71.68,2.65.68.87,0,1.56-.07,2.07-.21.51-.14.93-.31,1.25-.51.32-.2.6-.37.86-.51.42-.21.82-.32,1.19-.32.51,0,.94.18,1.28.53.34.35.51.76.51,1.23,0,.63-.33,1.21-.98,1.72-.61.52-1.46.97-2.56,1.35-1.1.39-2.24.58-3.41.58-1.99,0-3.72-.42-5.18-1.25-1.46-.83-2.59-1.96-3.37-3.39ZM47.44,12.91c-.08.25-.15.52-.21.81h9.2v-.25c-.05-.68-.29-1.29-.72-1.83-.43-.54-.97-.97-1.62-1.28-.64-.32-1.33-.47-2.05-.47s-1.36.09-1.97.28c-.61.19-1.14.5-1.58.95s-.8,1.04-1.05,1.79ZM62.52,20.83c-.76-1.46-1.14-3.14-1.14-5.04s.38-3.61,1.14-5.07c.76-1.46,1.78-2.61,3.07-3.44,1.29-.83,2.72-1.25,4.28-1.25,1.01,0,1.93.15,2.77.46.84.3,1.57.69,2.19,1.16.25.19.48.38.68.57v-.05c0-.61.2-1.12.6-1.53.4-.41.9-.61,1.51-.61s1.11.2,1.51.6c.4.4.6.91.6,1.55v14.85c0,.61-.2,1.12-.6,1.53-.4.41-.9.61-1.51.61s-1.11-.2-1.51-.61c-.39-.4-.59-.9-.6-1.49-.29.32-.64.63-1.05.95-.56.42-1.22.78-1.98,1.07-.76.29-1.59.44-2.48.44-1.62,0-3.08-.42-4.39-1.25-1.31-.83-2.35-1.98-3.11-3.44ZM65.42,15.79c0,1.1.22,2.1.65,2.99.43.89,1.04,1.59,1.81,2.11.77.52,1.66.77,2.67.77s1.93-.26,2.7-.77c.77-.51,1.38-1.22,1.81-2.11.43-.89.65-1.88.65-2.99s-.22-2.13-.65-3.02c-.43-.89-1.04-1.59-1.81-2.11-.77-.51-1.67-.77-2.7-.77s-1.9.26-2.67.77c-.77.52-1.38,1.22-1.81,2.11-.43.89-.65,1.9-.65,3.02ZM89.48,25.52c2.6,0,4.59-.73,5.97-2.18,1.38-1.45,2.07-3.42,2.07-5.9v-8.92c0-.61-.2-1.12-.6-1.53-.4-.41-.9-.61-1.51-.61s-1.11.21-1.51.61c-.4.41-.6.92-.6,1.53v8.92c0,1.43-.32,2.49-.95,3.18-.63.69-1.59,1.04-2.88,1.04s-2.21-.35-2.84-1.04c-.63-.69-.95-1.75-.95-3.18v-8.92c0-.61-.2-1.12-.6-1.53-.4-.41-.9-.61-1.51-.61s-1.11.21-1.51.61c-.4.41-.6.92-.6,1.53v8.92c0,2.48.68,4.45,2.05,5.9,1.37,1.45,3.35,2.18,5.95,2.18ZM99.8,10.59h1.62v9.69c0,1.15.18,2.05.53,2.7.35.66.79,1.14,1.32,1.46s1.09.52,1.69.6c.6.08,1.14.12,1.63.12.82,0,1.59-.21,2.3-.63.71-.42,1.07-.96,1.07-1.62,0-.54-.13-.96-.4-1.26-.27-.3-.57-.46-.9-.46-.3,0-.57.05-.81.16-.23.11-.49.16-.77.16-.26,0-.5-.05-.72-.14-.22-.09-.4-.25-.53-.46-.13-.21-.19-.48-.19-.81v-9.52h2.49c.56,0,1.03-.18,1.4-.54.37-.36.56-.81.56-1.35s-.19-1.03-.56-1.4c-.37-.37-.84-.56-1.4-.56h-2.49v-2.25c0-.61-.19-1.12-.58-1.53-.39-.41-.88-.61-1.49-.61s-1.12.21-1.53.61c-.41.41-.61.92-.61,1.53v2.25h-1.62c-.56,0-1.03.18-1.4.54-.37.36-.56.81-.56,1.35s.19,1.03.56,1.4c.37.37.84.56,1.4.56ZM114.39,24.66c.92.57,2.01.86,3.25.86,1.05,0,1.99-.13,2.81-.39.82-.26,1.53-.64,2.12-1.14.27-.23.52-.49.75-.78v.37c0,1.19-.18,2.14-.54,2.83-.36.69-.9,1.18-1.62,1.47-.71.29-1.61.44-2.69.44-.8,0-1.5-.12-2.11-.37-.61-.25-1.1-.43-1.47-.54-.52-.19-1.01-.16-1.47.09-.47.25-.81.71-1.02,1.39-.16.51-.11,1,.16,1.46.27.46.75.84,1.46,1.14.54.23,1.23.41,2.07.53.84.12,1.64.18,2.39.18,1.69,0,3.21-.28,4.57-.84,1.36-.56,2.44-1.48,3.25-2.76.81-1.28,1.21-2.99,1.21-5.14v-14.92c0-.61-.2-1.12-.6-1.53-.4-.41-.9-.61-1.51-.61s-1.11.21-1.51.61c-.4.41-.6.92-.6,1.53v8.99c0,.89-.15,1.65-.46,2.27-.3.62-.74,1.09-1.3,1.4-.56.32-1.25.47-2.07.47-1.19,0-2.12-.31-2.79-.93-.67-.62-1-1.69-1-3.21v-8.99c0-.61-.2-1.12-.6-1.53-.4-.41-.9-.61-1.51-.61s-1.11.21-1.51.61c-.4.41-.6.92-.6,1.53v10.25c0,1.31.26,2.48.77,3.49.51,1.02,1.23,1.81,2.16,2.39Z"></path></svg>
