<svg xmlns="http://www.w3.org/2000/svg" id="Camada_1" viewBox="0 0 150 90"><defs><style> .st0 { fill: #fff; } </style></defs><path class="st0" d="M28.93,81.02h4.06c1.04,0,1.85.28,2.37.8.4.4.61.91.61,1.5v.03c0,1.09-.62,1.67-1.29,2.02,1.06.36,1.8.97,1.8,2.2v.03c0,1.62-1.33,2.48-3.35,2.48h-4.19v-9.06ZM34.38,83.59c0-.71-.57-1.15-1.59-1.15h-2.29v2.41h2.17c1.02,0,1.71-.4,1.71-1.23v-.03ZM33.02,86.19h-2.52v2.48h2.64c1.07,0,1.75-.43,1.75-1.24v-.03c0-.76-.61-1.22-1.86-1.22ZM41.83,86.51l-3.6-5.49h1.89l2.52,4,2.56-4h1.82l-3.6,5.45v3.61h-1.6v-3.57ZM54.49,85.58v-.03c0-2.58,1.93-4.68,4.66-4.68,1.68,0,2.69.58,3.56,1.41l-1.02,1.18c-.74-.67-1.5-1.11-2.55-1.11-1.71,0-2.98,1.41-2.98,3.18v.03c0,1.77,1.26,3.21,2.99,3.21,1.11,0,1.82-.44,2.6-1.16l1.02,1.03c-.94.98-1.98,1.6-3.68,1.6-2.65,0-4.61-2.06-4.61-4.66ZM65.74,81.02h1.59v7.61h4.76v1.45h-6.35v-9.06ZM78.24,80.96h1.48l3.99,9.12h-1.68l-.92-2.19h-4.28l-.93,2.19h-1.63l3.99-9.12ZM80.51,86.49l-1.56-3.62-1.55,3.62h3.12ZM85.78,88.76l.96-1.14c.87.75,1.75,1.18,2.86,1.18.98,0,1.6-.47,1.6-1.14v-.03c0-.65-.36-1-2.04-1.38-1.93-.47-3.01-1.03-3.01-2.7v-.03c0-1.55,1.29-2.63,3.09-2.63,1.32,0,2.37.4,3.29,1.14l-.85,1.2c-.82-.61-1.63-.93-2.46-.93-.93,0-1.48.48-1.48,1.07v.03c0,.7.41,1.01,2.16,1.42,1.91.47,2.9,1.15,2.9,2.65v.03c0,1.7-1.33,2.7-3.23,2.7-1.39,0-2.69-.48-3.78-1.45ZM95.22,88.76l.96-1.14c.87.75,1.75,1.18,2.86,1.18.98,0,1.6-.47,1.6-1.14v-.03c0-.65-.36-1-2.04-1.38-1.93-.47-3.01-1.03-3.01-2.7v-.03c0-1.55,1.29-2.63,3.09-2.63,1.32,0,2.37.4,3.29,1.14l-.85,1.2c-.82-.61-1.63-.93-2.46-.93-.93,0-1.48.48-1.48,1.07v.03c0,.7.41,1.01,2.16,1.42,1.91.47,2.9,1.15,2.9,2.65v.03c0,1.7-1.33,2.7-3.23,2.7-1.39,0-2.69-.48-3.78-1.45ZM107.68,86.51l-3.6-5.49h1.89l2.52,4,2.56-4h1.82l-3.6,5.45v3.61h-1.6v-3.57ZM114.5,88.76l.96-1.14c.87.75,1.75,1.18,2.86,1.18.98,0,1.6-.47,1.6-1.14v-.03c0-.65-.36-1-2.04-1.38-1.93-.47-3.01-1.03-3.01-2.7v-.03c0-1.55,1.29-2.63,3.09-2.63,1.32,0,2.37.4,3.29,1.14l-.85,1.2c-.82-.61-1.63-.93-2.46-.93-.93,0-1.48.48-1.48,1.07v.03c0,.7.41,1.01,2.16,1.42,1.91.47,2.9,1.15,2.9,2.65v.03c0,1.7-1.33,2.7-3.23,2.7-1.39,0-2.69-.48-3.78-1.45ZM81.54,65.67c25.56-.72,47.52-6.94,57.98-15.4-8.41,10.68-33,18.91-62.24,19.73-36.49,1.02-66.4-9.88-66.8-24.35-.22-7.86,8.31-15.15,22-20.34-10.61,4.73-17.01,10.83-16.82,17.34.38,13.72,29.88,24.03,65.89,23.02ZM37.31,56.13c1.14,0,2.21-.21,3.2-.64.99-.43,1.79-1.04,2.38-1.84.6-.8.89-1.73.89-2.79,0-1.13-.22-2.03-.66-2.71-.44-.68-1.09-1.22-1.95-1.61-.87-.39-2.02-.72-3.47-.97-1.28-.24-2.21-.54-2.81-.91-.6-.37-.9-.92-.9-1.64,0-.64.29-1.16.87-1.55.58-.39,1.4-.59,2.46-.59.62,0,1.32.15,2.11.44.78.29,1.39.62,1.83.97.2.15.43.23.68.23.39,0,.72-.15,1.01-.44.29-.29.43-.63.43-1.02,0-.5-.24-.95-.73-1.34-.62-.52-1.4-.94-2.33-1.26-.93-.32-1.93-.48-2.99-.48-1.18,0-2.24.21-3.2.62-.96.41-1.71,1.01-2.27,1.79-.55.78-.83,1.7-.83,2.76,0,2.89,1.84,4.61,5.52,5.14,1.46.22,2.53.54,3.2.97.67.43,1.01,1.02,1.01,1.78,0,.62-.34,1.14-1.02,1.56-.68.42-1.49.63-2.43.63-.87,0-1.63-.13-2.27-.38-.64-.25-1.29-.66-1.97-1.21-.25-.2-.54-.3-.86-.3-.4,0-.75.15-1.03.44-.29.29-.43.63-.43,1.02,0,.49.23.93.68,1.34.82.72,1.71,1.24,2.65,1.54.94.3,2.02.45,3.23.45ZM54.55,42.4c-.44,0-.8.15-1.08.44-.29.29-.43.66-.43,1.1v6.45c0,.96-.24,1.69-.72,2.21-.48.51-1.16.77-2.03.77s-1.57-.23-2.03-.69c-.46-.46-.69-1.22-.69-2.28v-6.45c0-.44-.14-.8-.43-1.1-.29-.29-.65-.44-1.08-.44s-.8.15-1.08.44c-.29.29-.43.66-.43,1.1v7.36c0,.94.18,1.78.55,2.51.37.73.89,1.3,1.56,1.71.67.41,1.45.62,2.32.62,1.85,0,3.21-.55,4.08-1.64v.25c0,1.24-.28,2.12-.84,2.63-.56.51-1.44.77-2.63.77-.35,0-.69-.04-1.02-.11-.33-.08-.64-.17-.93-.29-.29-.12-.5-.2-.62-.25-.15-.05-.31-.08-.48-.08-.29,0-.55.1-.79.29-.24.19-.42.47-.52.84-.05.15-.08.29-.08.4,0,.62.41,1.11,1.24,1.46.37.15.85.27,1.45.37.6.09,1.18.14,1.75.14,1.97,0,3.54-.5,4.71-1.5,1.18-1,1.76-2.59,1.76-4.78v-10.71c0-.44-.14-.8-.43-1.1-.29-.29-.65-.44-1.08-.44ZM56.42,53.79c.61.82,1.39,1.42,2.34,1.79.96.37,1.99.55,3.1.55.81,0,1.59-.16,2.36-.48.76-.32,1.39-.79,1.88-1.4.49-.61.73-1.33.73-2.16,0-.91-.21-1.64-.63-2.19-.42-.55-.93-.97-1.54-1.24-.61-.27-1.36-.53-2.27-.78-.66-.18-1.16-.34-1.53-.47-.36-.13-.66-.3-.89-.53-.24-.23-.35-.53-.35-.9,0-.92.64-1.39,1.92-1.39.61,0,1.15.11,1.63.33.48.22.87.51,1.17.88.24.24.54.35.91.35.3,0,.57-.09.81-.28.32-.25.48-.57.48-.96,0-.34-.11-.64-.33-.91-.49-.62-1.16-1.09-2.02-1.41-.86-.32-1.71-.48-2.57-.48s-1.63.16-2.38.49c-.75.33-1.35.79-1.82,1.39-.46.6-.69,1.3-.69,2.11,0,.92.22,1.66.67,2.21.45.55.97.95,1.59,1.22.61.27,1.41.54,2.38.81.94.25,1.63.5,2.08.76.45.25.67.62.67,1.11,0,.94-.66,1.44-1.97,1.49-.77,0-1.43-.13-1.98-.38-.55-.25-1.07-.64-1.58-1.16-.32-.32-.66-.48-1.01-.48-.25,0-.5.08-.73.23-.44.3-.66.67-.66,1.11,0,.3.08.55.23.76ZM73.97,53.03c-.19,0-.38.04-.58.13-.24.07-.42.1-.55.1-.32,0-.57-.08-.76-.24-.19-.16-.28-.42-.28-.77v-6.83h1.79c.4,0,.74-.13,1.01-.39.27-.26.4-.58.4-.97s-.13-.74-.4-1.01c-.27-.27-.61-.4-1.01-.4h-1.79v-1.61c0-.44-.14-.8-.43-1.1-.29-.29-.64-.44-1.06-.44s-.8.15-1.1.44c-.29.29-.44.66-.44,1.1v1.61h-1.16c-.4,0-.74.13-1.01.39-.27.26-.4.58-.4.97s.13.74.4,1.01c.27.27.61.4,1.01.4h1.16v6.96c0,1.45.36,2.39,1.07,2.84.71.45,1.59.67,2.63.67.62,0,1.18-.16,1.68-.47.5-.31.74-.69.74-1.15,0-.37-.1-.67-.29-.9-.19-.23-.41-.34-.64-.34ZM87.86,48.82c0-1.19-.29-2.3-.88-3.33-.59-1.02-1.37-1.84-2.36-2.45-.98-.61-2.03-.91-3.14-.91s-2.18.29-3.18.87c-.99.58-1.79,1.42-2.39,2.51-.61,1.09-.91,2.36-.91,3.81,0,1.29.29,2.46.86,3.49.57,1.03,1.38,1.84,2.43,2.43,1.05.59,2.28.88,3.69.88.81,0,1.6-.13,2.39-.4.79-.27,1.42-.6,1.89-.98.47-.37.71-.78.71-1.24,0-.34-.13-.63-.38-.88-.25-.25-.55-.38-.91-.38-.27,0-.55.08-.86.23-.08.05-.24.15-.47.29-.23.14-.53.28-.92.4-.39.13-.92.19-1.61.19-.91,0-1.72-.28-2.45-.84-.72-.56-1.18-1.34-1.39-2.33h8.32c.4,0,.76-.13,1.06-.38.3-.25.46-.58.48-.98ZM81.48,44.92c.79,0,1.5.25,2.12.76.62.5.97,1.11,1.03,1.82v.18h-6.61c.35-1.83,1.5-2.75,3.45-2.75ZM104.04,42.14c-.99,0-1.88.29-2.66.86-.78.57-1.37,1.21-1.75,1.92-.59-1.85-1.94-2.77-4.06-2.77-.86,0-1.63.21-2.33.64-.7.43-1.27.95-1.73,1.55v-.4c0-.44-.14-.8-.43-1.1-.29-.29-.65-.44-1.08-.44s-.8.15-1.08.44c-.29.29-.43.66-.43,1.1v10.41c0,.44.14.8.43,1.1.29.29.65.44,1.08.44s.8-.15,1.08-.44c.29-.29.43-.66.43-1.1v-6.45c0-.86.26-1.57.79-2.13.53-.56,1.26-.84,2.21-.84s1.54.26,1.9.79c.36.53.54,1.26.54,2.18v6.45c0,.44.14.8.43,1.1.29.29.65.44,1.08.44s.8-.15,1.08-.44c.29-.29.43-.66.43-1.1v-6.45c0-.86.26-1.57.79-2.13.53-.56,1.26-.84,2.21-.84s1.54.26,1.9.79c.36.53.54,1.26.54,2.18v6.45c0,.44.14.8.43,1.1.29.29.65.44,1.08.44s.8-.15,1.08-.44c.29-.29.43-.66.43-1.1v-6.45c0-1.8-.32-3.21-.96-4.22-.64-1.02-1.79-1.53-3.45-1.53ZM109.06,53.79c.61.82,1.39,1.42,2.34,1.79.96.37,1.99.55,3.1.55.81,0,1.59-.16,2.36-.48.76-.32,1.39-.79,1.88-1.4.49-.61.73-1.33.73-2.16,0-.91-.21-1.64-.63-2.19-.42-.55-.93-.97-1.54-1.24-.61-.27-1.36-.53-2.27-.78-.66-.18-1.16-.34-1.53-.47-.36-.13-.66-.3-.9-.53-.24-.23-.35-.53-.35-.9,0-.92.64-1.39,1.92-1.39.61,0,1.15.11,1.63.33.48.22.87.51,1.17.88.24.24.54.35.91.35.3,0,.57-.09.81-.28.32-.25.48-.57.48-.96,0-.34-.11-.64-.33-.91-.49-.62-1.16-1.09-2.02-1.41-.86-.32-1.71-.48-2.57-.48s-1.63.16-2.38.49c-.75.33-1.35.79-1.82,1.39-.46.6-.69,1.3-.69,2.11,0,.92.22,1.66.67,2.21.44.55.97.95,1.59,1.22.61.27,1.41.54,2.38.81.94.25,1.63.5,2.08.76.44.25.67.62.67,1.11,0,.94-.66,1.44-1.97,1.49-.77,0-1.43-.13-1.98-.38-.55-.25-1.07-.64-1.58-1.16-.32-.32-.66-.48-1.01-.48-.25,0-.5.08-.73.23-.44.3-.66.67-.66,1.11,0,.3.08.55.23.76ZM61.97,1.98c-.47,0-.94.13-1.4.38-.46.25-.82.58-1.09.99l-11.36,16.99L37.06,3.35c-.27-.41-.66-.74-1.17-.99s-1.01-.38-1.52-.38c-.88,0-1.63.3-2.26.91-.63.61-.94,1.34-.94,2.18v29.37c0,.88.27,1.62.81,2.21.54.59,1.23.89,2.08.89s1.59-.29,2.13-.86c.54-.57.81-1.32.81-2.23V13.54l8.37,13.24c.34.41.73.74,1.17.99.44.25.88.36,1.32.33.47.03.93-.08,1.37-.33.44-.25.83-.58,1.17-.99l8.37-12.78v20.44c0,.91.3,1.66.89,2.23.59.58,1.36.86,2.31.86s1.71-.3,2.28-.89c.57-.59.86-1.33.86-2.21V5.07c0-.88-.31-1.61-.94-2.21-.63-.59-1.36-.89-2.21-.89ZM91.81,23.34c0-2.4-.59-4.63-1.78-6.7-1.18-2.06-2.76-3.7-4.74-4.92-1.98-1.22-4.08-1.83-6.32-1.83s-4.4.58-6.39,1.75c-2,1.17-3.6,2.85-4.82,5.05-1.22,2.2-1.83,4.75-1.83,7.66,0,2.6.57,4.95,1.72,7.03,1.15,2.08,2.78,3.71,4.9,4.9,2.11,1.18,4.59,1.78,7.43,1.78,1.62,0,3.23-.27,4.82-.81,1.59-.54,2.86-1.2,3.8-1.98.95-.74,1.42-1.57,1.42-2.49,0-.68-.25-1.27-.76-1.78-.51-.51-1.12-.76-1.83-.76-.54,0-1.12.15-1.72.46-.17.1-.48.3-.94.58-.46.29-1.07.56-1.85.81-.78.25-1.86.38-3.25.38-1.83,0-3.47-.57-4.92-1.7-1.45-1.13-2.38-2.7-2.79-4.69h16.74c.81,0,1.52-.25,2.13-.76.61-.51.93-1.17.96-1.98ZM78.98,15.47c1.59,0,3.01.51,4.26,1.52,1.25,1.01,1.94,2.23,2.08,3.65v.36h-13.29c.71-3.69,3.03-5.53,6.95-5.53ZM116.18,0c-.88,0-1.61.3-2.18.89-.58.59-.86,1.33-.86,2.21v9.94c-.98-.91-2.18-1.67-3.6-2.26-1.42-.59-2.94-.89-4.57-.89-2.27,0-4.34.6-6.21,1.8-1.88,1.2-3.36,2.87-4.44,5.02-1.08,2.15-1.62,4.57-1.62,7.28s.55,5.12,1.65,7.25c1.1,2.13,2.6,3.8,4.49,5,1.89,1.2,4.01,1.8,6.34,1.8,1.59,0,3.1-.35,4.54-1.04,1.44-.69,2.58-1.53,3.42-2.51.03.88.33,1.61.89,2.18.56.58,1.28.86,2.16.86s1.61-.3,2.18-.89c.57-.59.86-1.33.86-2.21V3.09c0-.91-.29-1.66-.86-2.23-.58-.57-1.3-.86-2.18-.86ZM105.94,32.47c-2.2,0-3.98-.8-5.35-2.41-1.37-1.61-2.05-3.63-2.05-6.06s.69-4.46,2.08-6.09c1.39-1.62,3.16-2.43,5.33-2.43s3.99.81,5.38,2.43c1.39,1.62,2.08,3.65,2.08,6.09s-.69,4.46-2.08,6.06c-1.39,1.61-3.18,2.41-5.38,2.41Z"></path></svg>
